<mxfile host="app.diagrams.net" agent="Mozilla/5.0 (Windows NT 10.0; Win64; x64) AppleWebKit/537.36 (KHTML, like Gecko) Chrome/129.0.0.0 Safari/537.36" version="24.7.17">
  <diagram name="Page-1" id="E4wbeqbQnRIVCoT0CGZs">
    <mxGraphModel dx="1232" dy="1097" grid="1" gridSize="10" guides="1" tooltips="1" connect="1" arrows="1" fold="1" page="1" pageScale="1" pageWidth="850" pageHeight="1100" math="0" shadow="0">
      <root>
        <mxCell id="0" />
        <mxCell id="1" parent="0" />
        <mxCell id="b9B3qIVvt_p528zDutxF-1" value="" style="strokeWidth=1;shadow=0;dashed=0;align=center;html=1;shape=mxgraph.mockup.containers.browserWindow;rSize=0;strokeColor=#666666;strokeColor2=#008cff;strokeColor3=#c4c4c4;mainText=,;recursiveResize=0;" vertex="1" parent="1">
          <mxGeometry x="40" y="120" width="760" height="940" as="geometry" />
        </mxCell>
        <mxCell id="b9B3qIVvt_p528zDutxF-2" value="Air Asia" style="strokeWidth=1;shadow=0;dashed=0;align=center;html=1;shape=mxgraph.mockup.containers.anchor;fontSize=17;fontColor=#666666;align=left;whiteSpace=wrap;" vertex="1" parent="b9B3qIVvt_p528zDutxF-1">
          <mxGeometry x="60" y="12" width="110" height="26" as="geometry" />
        </mxCell>
        <mxCell id="b9B3qIVvt_p528zDutxF-3" value="https://www.airasia/mileagerewards/login.html" style="strokeWidth=1;shadow=0;dashed=0;align=center;html=1;shape=mxgraph.mockup.containers.anchor;rSize=0;fontSize=17;fontColor=#666666;align=left;" vertex="1" parent="b9B3qIVvt_p528zDutxF-1">
          <mxGeometry x="130" y="60" width="250" height="26" as="geometry" />
        </mxCell>
        <mxCell id="b9B3qIVvt_p528zDutxF-4" value="" style="strokeWidth=1;shadow=0;dashed=0;align=center;html=1;shape=mxgraph.mockup.forms.rrect;rSize=0;strokeColor=#999999;fillColor=#ffffff;" vertex="1" parent="b9B3qIVvt_p528zDutxF-1">
          <mxGeometry x="260" y="340" width="250" height="330" as="geometry" />
        </mxCell>
        <mxCell id="b9B3qIVvt_p528zDutxF-5" value="&lt;b&gt;Mileage Rewards&lt;/b&gt;&lt;div&gt;&lt;b&gt;Redemption Login&lt;/b&gt;&lt;/div&gt;" style="strokeWidth=1;shadow=0;dashed=0;align=center;html=1;shape=mxgraph.mockup.forms.anchor;fontSize=12;fontColor=#666666;align=left;resizeWidth=1;spacingLeft=0;" vertex="1" parent="b9B3qIVvt_p528zDutxF-4">
          <mxGeometry width="162.5" height="40" relative="1" as="geometry">
            <mxPoint x="65" y="111" as="offset" />
          </mxGeometry>
        </mxCell>
        <mxCell id="b9B3qIVvt_p528zDutxF-6" value="User Name:" style="strokeWidth=1;shadow=0;dashed=0;align=center;html=1;shape=mxgraph.mockup.forms.anchor;fontSize=12;fontColor=#666666;align=left;resizeWidth=1;spacingLeft=0;" vertex="1" parent="b9B3qIVvt_p528zDutxF-4">
          <mxGeometry width="125" height="20" relative="1" as="geometry">
            <mxPoint x="31" y="161" as="offset" />
          </mxGeometry>
        </mxCell>
        <mxCell id="b9B3qIVvt_p528zDutxF-7" value="johndoe" style="strokeWidth=1;shadow=0;dashed=0;align=center;html=1;shape=mxgraph.mockup.forms.rrect;rSize=0;strokeColor=#999999;fontColor=#666666;align=left;spacingLeft=5;resizeWidth=1;" vertex="1" parent="b9B3qIVvt_p528zDutxF-4">
          <mxGeometry width="187.5" height="25" relative="1" as="geometry">
            <mxPoint x="31" y="181" as="offset" />
          </mxGeometry>
        </mxCell>
        <mxCell id="b9B3qIVvt_p528zDutxF-8" value="Password:" style="strokeWidth=1;shadow=0;dashed=0;align=center;html=1;shape=mxgraph.mockup.forms.anchor;fontSize=12;fontColor=#666666;align=left;resizeWidth=1;spacingLeft=0;" vertex="1" parent="b9B3qIVvt_p528zDutxF-4">
          <mxGeometry width="125" height="20" relative="1" as="geometry">
            <mxPoint x="31" y="216" as="offset" />
          </mxGeometry>
        </mxCell>
        <mxCell id="b9B3qIVvt_p528zDutxF-9" value="********" style="strokeWidth=1;shadow=0;dashed=0;align=center;html=1;shape=mxgraph.mockup.forms.rrect;rSize=0;strokeColor=#999999;fontColor=#666666;align=left;spacingLeft=5;resizeWidth=1;" vertex="1" parent="b9B3qIVvt_p528zDutxF-4">
          <mxGeometry width="187.5" height="25" relative="1" as="geometry">
            <mxPoint x="31" y="236" as="offset" />
          </mxGeometry>
        </mxCell>
        <mxCell id="b9B3qIVvt_p528zDutxF-10" value="SIGN IN" style="strokeWidth=1;shadow=0;dashed=0;align=center;html=1;shape=mxgraph.mockup.forms.rrect;rSize=5;strokeColor=none;fontColor=#ffffff;fillColor=#66bbff;fontSize=16;fontStyle=1;" vertex="1" parent="b9B3qIVvt_p528zDutxF-4">
          <mxGeometry y="1" width="80" height="30" relative="1" as="geometry">
            <mxPoint x="80" y="-49" as="offset" />
          </mxGeometry>
        </mxCell>
        <mxCell id="b9B3qIVvt_p528zDutxF-11" value="" style="ellipse;whiteSpace=wrap;html=1;aspect=fixed;" vertex="1" parent="b9B3qIVvt_p528zDutxF-4">
          <mxGeometry x="79.75" y="20" width="80" height="80" as="geometry" />
        </mxCell>
        <mxCell id="b9B3qIVvt_p528zDutxF-12" value="Logo" style="text;strokeColor=none;fillColor=none;html=1;fontSize=24;fontStyle=1;verticalAlign=middle;align=center;" vertex="1" parent="b9B3qIVvt_p528zDutxF-4">
          <mxGeometry x="57.25" y="40" width="125" height="40" as="geometry" />
        </mxCell>
        <mxCell id="b9B3qIVvt_p528zDutxF-13" value="Air Asia Mileage Rewards Redemption [Login Page]" style="text;strokeColor=none;fillColor=none;html=1;fontSize=24;fontStyle=1;verticalAlign=middle;align=center;" vertex="1" parent="1">
          <mxGeometry x="375" y="40" width="100" height="60" as="geometry" />
        </mxCell>
      </root>
    </mxGraphModel>
  </diagram>
</mxfile>
